<mxfile host="app.diagrams.net" modified="2024-03-08T17:01:28.432Z" agent="Mozilla/5.0 (Macintosh; Intel Mac OS X 10_15_7) AppleWebKit/605.1.15 (KHTML, like Gecko) Version/17.1 Safari/605.1.15" etag="o0W3HLZfxhW1qYSydHo2" version="24.0.1" type="github">
  <diagram name="Page-1" id="Kr2ntku6KOnwrp9GdXT6">
    <mxGraphModel dx="2368" dy="2134" grid="1" gridSize="10" guides="1" tooltips="1" connect="1" arrows="1" fold="1" page="0" pageScale="1" pageWidth="850" pageHeight="1100" math="0" shadow="0">
      <root>
        <mxCell id="0" />
        <mxCell id="1" parent="0" />
        <mxCell id="vMozbLv-OElXNJwPQnX--14" value="" style="whiteSpace=wrap;html=1;" vertex="1" parent="1">
          <mxGeometry x="560" y="-330" width="330" height="550" as="geometry" />
        </mxCell>
        <mxCell id="RGzQTjB-QN1Bn-FcTvta-18" value="" style="group" parent="1" vertex="1" connectable="0">
          <mxGeometry x="-146" y="-434" width="350" height="262" as="geometry" />
        </mxCell>
        <mxCell id="RGzQTjB-QN1Bn-FcTvta-19" value="" style="group" parent="RGzQTjB-QN1Bn-FcTvta-18" vertex="1" connectable="0">
          <mxGeometry x="256" y="334" width="187" height="262" as="geometry" />
        </mxCell>
        <mxCell id="RGzQTjB-QN1Bn-FcTvta-20" value="" style="outlineConnect=0;dashed=0;verticalLabelPosition=bottom;verticalAlign=top;align=center;html=1;shape=mxgraph.aws3.ec2;fillColor=#F58534;gradientColor=none;" parent="RGzQTjB-QN1Bn-FcTvta-19" vertex="1">
          <mxGeometry width="180.97" height="207.33812949640287" as="geometry" />
        </mxCell>
        <mxCell id="RGzQTjB-QN1Bn-FcTvta-21" value="TMO Staging Server" style="text;strokeColor=none;fillColor=none;html=1;align=center;verticalAlign=middle;whiteSpace=wrap;rounded=0;fontSize=16;" parent="RGzQTjB-QN1Bn-FcTvta-19" vertex="1">
          <mxGeometry x="30.24" y="213.93525179856115" width="126.52" height="28.27338129496403" as="geometry" />
        </mxCell>
        <mxCell id="RGzQTjB-QN1Bn-FcTvta-24" value="PostgresDB" style="shape=datastore;whiteSpace=wrap;html=1;" parent="RGzQTjB-QN1Bn-FcTvta-18" vertex="1">
          <mxGeometry x="417" y="407.67" width="85.33" height="85.33" as="geometry" />
        </mxCell>
        <mxCell id="RGzQTjB-QN1Bn-FcTvta-35" value="" style="group" parent="1" vertex="1" connectable="0">
          <mxGeometry x="910" y="390" width="700" height="200" as="geometry" />
        </mxCell>
        <mxCell id="RGzQTjB-QN1Bn-FcTvta-32" value="" style="group" parent="RGzQTjB-QN1Bn-FcTvta-35" vertex="1" connectable="0">
          <mxGeometry width="156.54162854528823" height="196.86274509803923" as="geometry" />
        </mxCell>
        <mxCell id="RGzQTjB-QN1Bn-FcTvta-25" value="" style="outlineConnect=0;dashed=0;verticalLabelPosition=bottom;verticalAlign=top;align=center;html=1;shape=mxgraph.aws3.api_gateway;fillColor=#D9A741;gradientColor=none;" parent="RGzQTjB-QN1Bn-FcTvta-32" vertex="1">
          <mxGeometry width="156.5416285452882" height="163.13725490196077" as="geometry" />
        </mxCell>
        <mxCell id="RGzQTjB-QN1Bn-FcTvta-30" value="Federated Search" style="text;strokeColor=none;fillColor=none;html=1;align=center;verticalAlign=middle;whiteSpace=wrap;rounded=0;fontSize=16;" parent="RGzQTjB-QN1Bn-FcTvta-32" vertex="1">
          <mxGeometry x="50.82342177493135" y="173.33333333333331" width="54.89478499542545" height="23.52941176470588" as="geometry" />
        </mxCell>
        <mxCell id="RGzQTjB-QN1Bn-FcTvta-33" value="" style="group" parent="RGzQTjB-QN1Bn-FcTvta-35" vertex="1" connectable="0">
          <mxGeometry x="279.0484903934127" width="156.54162854528812" height="200" as="geometry" />
        </mxCell>
        <mxCell id="RGzQTjB-QN1Bn-FcTvta-26" value="" style="outlineConnect=0;dashed=0;verticalLabelPosition=bottom;verticalAlign=top;align=center;html=1;shape=mxgraph.aws3.api_gateway;fillColor=#D9A741;gradientColor=none;" parent="RGzQTjB-QN1Bn-FcTvta-33" vertex="1">
          <mxGeometry width="156.5416285452882" height="163.13725490196077" as="geometry" />
        </mxCell>
        <mxCell id="RGzQTjB-QN1Bn-FcTvta-29" value="CAMP API" style="text;strokeColor=none;fillColor=none;html=1;align=center;verticalAlign=middle;whiteSpace=wrap;rounded=0;fontSize=16;" parent="RGzQTjB-QN1Bn-FcTvta-33" vertex="1">
          <mxGeometry x="36.43183897529729" y="170.19607843137254" width="83.66880146386093" height="29.803921568627448" as="geometry" />
        </mxCell>
        <mxCell id="RGzQTjB-QN1Bn-FcTvta-34" value="" style="group" parent="RGzQTjB-QN1Bn-FcTvta-35" vertex="1" connectable="0">
          <mxGeometry x="543.4583714547118" width="156.54162854528812" height="200" as="geometry" />
        </mxCell>
        <mxCell id="RGzQTjB-QN1Bn-FcTvta-27" value="" style="outlineConnect=0;dashed=0;verticalLabelPosition=bottom;verticalAlign=top;align=center;html=1;shape=mxgraph.aws3.api_gateway;fillColor=#D9A741;gradientColor=none;" parent="RGzQTjB-QN1Bn-FcTvta-34" vertex="1">
          <mxGeometry width="156.5416285452882" height="163.13725490196077" as="geometry" />
        </mxCell>
        <mxCell id="RGzQTjB-QN1Bn-FcTvta-28" value="NBI API" style="text;strokeColor=none;fillColor=none;html=1;align=center;verticalAlign=middle;whiteSpace=wrap;rounded=0;fontSize=16;" parent="RGzQTjB-QN1Bn-FcTvta-34" vertex="1">
          <mxGeometry x="50.82342177493135" y="170.19607843137254" width="54.89478499542544" height="29.803921568627448" as="geometry" />
        </mxCell>
        <mxCell id="vMozbLv-OElXNJwPQnX--1" style="edgeStyle=orthogonalEdgeStyle;rounded=0;orthogonalLoop=1;jettySize=auto;html=1;strokeColor=#FF9933;startArrow=classic;startFill=1;exitX=0.5;exitY=0;exitDx=0;exitDy=0;exitPerimeter=0;" edge="1" parent="1" source="RGzQTjB-QN1Bn-FcTvta-27" target="RGzQTjB-QN1Bn-FcTvta-12">
          <mxGeometry relative="1" as="geometry">
            <mxPoint x="890" y="220" as="targetPoint" />
            <Array as="points">
              <mxPoint x="1532" y="-35" />
            </Array>
          </mxGeometry>
        </mxCell>
        <mxCell id="vMozbLv-OElXNJwPQnX--3" style="edgeStyle=orthogonalEdgeStyle;rounded=0;orthogonalLoop=1;jettySize=auto;html=1;startArrow=classic;startFill=1;strokeColor=#67AB9F;exitX=0.5;exitY=0;exitDx=0;exitDy=0;exitPerimeter=0;" edge="1" parent="1" source="RGzQTjB-QN1Bn-FcTvta-26" target="RGzQTjB-QN1Bn-FcTvta-12">
          <mxGeometry relative="1" as="geometry">
            <mxPoint x="820" y="80" as="targetPoint" />
            <Array as="points">
              <mxPoint x="1267" y="-35" />
            </Array>
          </mxGeometry>
        </mxCell>
        <mxCell id="vMozbLv-OElXNJwPQnX--6" style="edgeStyle=orthogonalEdgeStyle;rounded=0;orthogonalLoop=1;jettySize=auto;html=1;startArrow=classic;startFill=1;strokeColor=#FF3399;" edge="1" parent="1" source="RGzQTjB-QN1Bn-FcTvta-25" target="RGzQTjB-QN1Bn-FcTvta-12">
          <mxGeometry relative="1" as="geometry" />
        </mxCell>
        <mxCell id="vMozbLv-OElXNJwPQnX--13" value="Ruby Agent EC2" style="text;strokeColor=none;fillColor=none;html=1;align=center;verticalAlign=middle;whiteSpace=wrap;rounded=0;fontSize=16;" vertex="1" parent="1">
          <mxGeometry x="606.12" y="-313.17" width="163.88" height="30" as="geometry" />
        </mxCell>
        <mxCell id="RGzQTjB-QN1Bn-FcTvta-9" value="" style="outlineConnect=0;dashed=0;verticalLabelPosition=bottom;verticalAlign=top;align=center;html=1;shape=mxgraph.aws3.ec2;fillColor=#F58534;gradientColor=none;" parent="1" vertex="1">
          <mxGeometry x="574.4117647058823" y="-316.34" width="27.38235294117647" height="36.34" as="geometry" />
        </mxCell>
        <mxCell id="RGzQTjB-QN1Bn-FcTvta-13" value="MQTT Listener" style="rounded=1;whiteSpace=wrap;html=1;perimeterSpacing=10;fillColor=#e1d5e7;strokeColor=#9673a6;" parent="1" vertex="1">
          <mxGeometry x="581.6176470588235" y="100" width="86.47058823529412" height="70" as="geometry" />
        </mxCell>
        <mxCell id="vMozbLv-OElXNJwPQnX--9" value="InfluxDB" style="rounded=1;whiteSpace=wrap;html=1;perimeterSpacing=10;fillColor=#ffe6cc;strokeColor=#d79b00;" vertex="1" parent="1">
          <mxGeometry x="574.4117647058823" y="-220" width="86.47058823529412" height="60" as="geometry" />
        </mxCell>
        <mxCell id="vMozbLv-OElXNJwPQnX--10" value="Grafana" style="rounded=1;whiteSpace=wrap;html=1;perimeterSpacing=10;fillColor=#dae8fc;strokeColor=#6c8ebf;" vertex="1" parent="1">
          <mxGeometry x="711.3235294117646" y="-220" width="86.47058823529412" height="60" as="geometry" />
        </mxCell>
        <mxCell id="vMozbLv-OElXNJwPQnX--11" style="edgeStyle=orthogonalEdgeStyle;rounded=0;orthogonalLoop=1;jettySize=auto;html=1;strokeColor=#FFE6CC;startArrow=classic;startFill=1;" edge="1" parent="1" source="vMozbLv-OElXNJwPQnX--9" target="vMozbLv-OElXNJwPQnX--10">
          <mxGeometry relative="1" as="geometry" />
        </mxCell>
        <mxCell id="RGzQTjB-QN1Bn-FcTvta-12" value="Sidekiq Cron" style="rounded=1;whiteSpace=wrap;html=1;perimeterSpacing=10;fillColor=#f8cecc;strokeColor=#b85450;" parent="1" vertex="1">
          <mxGeometry x="711.3235294117646" y="-90" width="86.47058823529412" height="70" as="geometry" />
        </mxCell>
        <mxCell id="vMozbLv-OElXNJwPQnX--12" style="edgeStyle=orthogonalEdgeStyle;rounded=0;orthogonalLoop=1;jettySize=auto;html=1;strokeColor=#A9C4EB;startArrow=classic;startFill=1;" edge="1" parent="1" source="RGzQTjB-QN1Bn-FcTvta-12" target="vMozbLv-OElXNJwPQnX--9">
          <mxGeometry relative="1" as="geometry" />
        </mxCell>
        <mxCell id="vMozbLv-OElXNJwPQnX--16" style="edgeStyle=orthogonalEdgeStyle;rounded=0;orthogonalLoop=1;jettySize=auto;html=1;entryX=0.25;entryY=1;entryDx=0;entryDy=0;strokeColor=#004C99;" edge="1" parent="1" source="RGzQTjB-QN1Bn-FcTvta-13" target="vMozbLv-OElXNJwPQnX--9">
          <mxGeometry relative="1" as="geometry" />
        </mxCell>
        <mxCell id="vMozbLv-OElXNJwPQnX--18" style="edgeStyle=orthogonalEdgeStyle;rounded=0;orthogonalLoop=1;jettySize=auto;html=1;entryX=0.063;entryY=0.878;entryDx=0;entryDy=0;entryPerimeter=0;startArrow=classic;startFill=1;endArrow=none;endFill=0;" edge="1" parent="1" source="RGzQTjB-QN1Bn-FcTvta-24" target="RGzQTjB-QN1Bn-FcTvta-12">
          <mxGeometry relative="1" as="geometry" />
        </mxCell>
      </root>
    </mxGraphModel>
  </diagram>
</mxfile>
